<?xml version="1.0" encoding="utf-8"?>
<!-- Generator: Adobe Illustrator 25.0.1, SVG Export Plug-In . SVG Version: 6.00 Build 0)  -->
<svg version="1.1" id="Layer_1" xmlns="http://www.w3.org/2000/svg" xmlns:xlink="http://www.w3.org/1999/xlink" x="0px" y="0px"
	 viewBox="0 0 1602 1402" style="enable-background:new 0 0 1602 1402;" xml:space="preserve">
<style type="text/css">
	.st0{fill:#FF0000;stroke:#000000;stroke-width:2;stroke-linecap:square;}
	.st1{font-family:Roboto;}
	.st2{font-size:36px;}
	.st3{fill:none;stroke:#000000;stroke-width:2;stroke-linecap:square;}
	.st4{fill:none;stroke:#000000;stroke-width:2;}
	.st5{fill-rule:evenodd;clip-rule:evenodd;fill:#D8D8D8;stroke:#000000;stroke-width:2;}
	.st6{enable-background:new    ;}
	.st7{fill:none;stroke:#000000;stroke-width:3;stroke-miterlimit:10;stroke-dasharray:12,12;}
	.st8{fill:none;stroke:#000000;stroke-width:3;stroke-miterlimit:10;}
	.st9{fill:#39B54A;stroke:#000000;stroke-width:2;stroke-linecap:square;}
</style>
<g>
	<g>
		<rect x="1" y="1" class="st0" width="200" height="50"/>
		<text transform="matrix(1 0 0 1 30.872 36.5203)" class="st1 st2">Operator</text>
	</g>
</g>
<g>
	<g>
		<rect x="1" y="51" class="st3" width="200" height="50"/>
		<text transform="matrix(1 0 0 1 10.9472 86.5203)" class="st1 st2">Remote DC</text>
	</g>
</g>
<rect x="51" y="201" class="st4" width="100" height="1000"/>
<rect id="Rectangle_8_" x="76" y="751" class="st5" width="50" height="300"/>
<g>
	<rect id="Rectangle_6_" x="1" y="1301" class="st5" width="200" height="100"/>
	<text transform="matrix(1 0 0 1 18.5408 1337.5206)" class="st6"><tspan x="0" y="0" class="st1 st2">Determine</tspan><tspan x="21.6" y="48" class="st1 st2">content</tspan></text>
</g>
<line class="st4" x1="101" y1="101" x2="101" y2="201"/>
<line class="st4" x1="101" y1="1201" x2="101" y2="1301"/>
<g>
	<g>
		<line class="st7" x1="151" y1="901" x2="429.5" y2="901"/>
		<g>
			<polygon points="425.1,916 451,901 425.1,886 			"/>
		</g>
	</g>
</g>
<rect id="Rectangle" x="451" y="851" class="st4" width="100" height="100"/>
<rect id="Rectangle_1_" x="1051" y="851" class="st4" width="100" height="100"/>
<g>
	<polygon class="st4" points="1151,751 1151,801 1051,801 1051,751 551,751 551,801 451,801 451,751 351,751 351,1051 1251,1051 
		1251,751 	"/>
</g>
<g>
	<g>
		<line class="st8" x1="551" y1="901" x2="1029.5" y2="901"/>
		<g>
			<polygon points="1025.1,916 1051,901 1025.1,886 			"/>
		</g>
	</g>
</g>
<g>
	<g>
		<line class="st7" x1="1151" y1="901" x2="1429.5" y2="901"/>
		<g>
			<polygon points="1425.1,916 1451,901 1425.1,886 			"/>
		</g>
	</g>
</g>
<g>
	<rect id="Rectangle_2_" x="401" y="1151" class="st5" width="200" height="100"/>
	<text transform="matrix(1 0 0 1 438.7996 1187.5206)" class="st6"><tspan x="0" y="0" class="st1 st2">Receive</tspan><tspan x="1.4" y="48" class="st1 st2">content</tspan></text>
</g>
<line class="st4" x1="501" y1="1051" x2="501" y2="1151"/>
<g>
	<rect id="Rectangle_3_" x="1001" y="1151" class="st5" width="200" height="100"/>
	<text transform="matrix(1 0 0 1 1042.7722 1187.5206)" class="st6"><tspan x="0" y="0" class="st1 st2">Display</tspan><tspan x="-2.6" y="48" class="st1 st2">content</tspan></text>
</g>
<line class="st4" x1="1101" y1="1051" x2="1101" y2="1151"/>
<g>
	<g>
		<g>
			<rect x="1401" y="1" class="st9" width="200" height="50"/>
			<text transform="matrix(1 0 0 1 1464.4199 36.5203)" class="st1 st2">User</text>
		</g>
	</g>
	<g>
		<g>
			<rect x="1401" y="51" class="st3" width="200" height="50"/>
			<text transform="matrix(1 0 0 1 1408.9785 86.5202)" class="st1 st2">Own device</text>
		</g>
	</g>
	<rect x="1451" y="201" class="st4" width="100" height="1000"/>
	<rect id="Rectangle_5_" x="1476" y="751" class="st5" width="50" height="300"/>
	<g>
		<rect id="Rectangle_4_" x="1401" y="1301" class="st5" width="200" height="100"/>
		<text transform="matrix(1 0 0 1 1407.8533 1337.5206)" class="st6"><tspan x="0" y="0" class="st1 st2">Interpretate</tspan><tspan x="32.3" y="48" class="st1 st2">content</tspan></text>
	</g>
	<line class="st4" x1="1501" y1="101" x2="1501" y2="201"/>
	<line class="st4" x1="1501" y1="1201" x2="1501" y2="1301"/>
</g>
</svg>
