<?xml version="1.0" encoding="utf-8"?>
<!-- Generator: Adobe Illustrator 25.0.1, SVG Export Plug-In . SVG Version: 6.00 Build 0)  -->
<svg version="1.1" id="Layer_1" xmlns="http://www.w3.org/2000/svg" xmlns:xlink="http://www.w3.org/1999/xlink" x="0px" y="0px"
	 viewBox="0 0 821 610.5" style="enable-background:new 0 0 821 610.5;" xml:space="preserve">
<style type="text/css">
	.st0{font-family:Roboto;}
	.st1{font-size:24px;}
	.st2{fill:none;stroke:#000000;stroke-miterlimit:10;}
	.st3{fill:#CCCCCC;stroke:#000000;stroke-miterlimit:10;}
	.st4{fill:#3FA9F5;stroke:#000000;stroke-miterlimit:10;}
	.st5{fill:#F2F2F2;stroke:#000000;stroke-miterlimit:10;}
	.st6{fill:none;stroke:#3FA9F5;stroke-linecap:round;stroke-linejoin:round;}
	.st7{fill:#3FA9F5;}
</style>
<g>
	<text transform="matrix(1 0 0 1 19.7969 92.0135)" class="st0 st1">Left hand side page</text>
	<rect x="0.5" y="70" class="st2" width="250" height="30"/>
</g>
<g>
	<rect x="0.5" y="100" class="st2" width="380" height="450"/>
	<g>
		<rect x="60.5" y="290" class="st3" width="180" height="70"/>
		<text transform="matrix(1 0 0 1 69.4767 314.014)"><tspan x="0" y="0" class="st0 st1">Supplementary</tspan><tspan x="38.6" y="36" class="st0 st1">Content</tspan></text>
	</g>
</g>
<g>
	<rect x="410.5" y="100" class="st4" width="20" height="450"/>
</g>
<g>
	<g>
		<rect x="0.5" y="580" class="st2" width="820" height="30"/>
	</g>
	<text transform="matrix(1 0 0 1 120.2386 602.0135)" class="st0 st1">Single View - Considered as two opposing book pages</text>
</g>
<g>
	<text transform="matrix(1 0 0 1 582.9651 92.0136)" class="st0 st1">Right hand side page</text>
	<rect x="570.5" y="70" class="st2" width="250" height="30"/>
</g>
<g>
	<rect x="460.5" y="100" transform="matrix(-1 -4.792046e-11 4.792046e-11 -1 1281 650)" class="st5" width="360" height="450"/>
	<g>
		<rect x="590.5" y="290" class="st3" width="180" height="70"/>
		<text transform="matrix(1 0 0 1 638.8338 317.6136)"><tspan x="0" y="0" class="st0 st1">Original</tspan><tspan x="-0.8" y="28.8" class="st0 st1">Content</tspan></text>
	</g>
</g>
<g>
	<path class="st6" d="M318.4,325c-9.9,0-17.9,7.8-17.9,17.5s8,17.5,17.9,17.5"/>
	<line class="st6" x1="318.4" y1="360" x2="522.6" y2="360"/>
	<g>
		<path class="st6" d="M522.6,360c9.9,0,17.9,7.8,17.9,17.5s-8,17.5-17.9,17.5"/>
		<line class="st6" x1="318.4" y1="395" x2="522.6" y2="395"/>
	</g>
	<path class="st6" d="M318.4,255c-9.9,0-17.9,7.8-17.9,17.5s8,17.5,17.9,17.5"/>
	<line class="st6" x1="318.4" y1="290" x2="522.6" y2="290"/>
	<g>
		<path class="st6" d="M522.6,290c9.9,0,17.9,7.8,17.9,17.5s-8,17.5-17.9,17.5"/>
		<line class="st6" x1="318.4" y1="325" x2="522.6" y2="325"/>
	</g>
	<path class="st6" d="M318.4,465c-9.9,0-17.9,7.8-17.9,17.5s8,17.5,17.9,17.5"/>
	<line class="st6" x1="318.4" y1="500" x2="522.6" y2="500"/>
	<path class="st6" d="M318.4,395c-9.9,0-17.9,7.8-17.9,17.5s8,17.5,17.9,17.5"/>
	<line class="st6" x1="318.4" y1="430" x2="522.6" y2="430"/>
	<g>
		<path class="st6" d="M522.6,430c9.9,0,17.9,7.8,17.9,17.5s-8,17.5-17.9,17.5"/>
		<line class="st6" x1="318.4" y1="465" x2="522.6" y2="465"/>
	</g>
	<path class="st6" d="M318.4,185c-9.9,0-17.9,7.8-17.9,17.5s8,17.5,17.9,17.5"/>
	<line class="st6" x1="318.4" y1="220" x2="522.6" y2="220"/>
	<g>
		<path class="st6" d="M522.6,220c9.9,0,17.9,7.8,17.9,17.5s-8,17.5-17.9,17.5"/>
		<line class="st6" x1="318.4" y1="255" x2="522.6" y2="255"/>
	</g>
	<line class="st6" x1="318.4" y1="150" x2="522.6" y2="150"/>
	<g>
		<path class="st6" d="M522.6,150c9.9,0,17.9,7.8,17.9,17.5s-8,17.5-17.9,17.5"/>
		<line class="st6" x1="318.4" y1="185" x2="522.6" y2="185"/>
	</g>
</g>
<g>
	<path d="M370.2,9.8c-0.3-0.4-0.7-0.8-1.1-1.2c-0.2-0.2-0.4-0.4-0.6-0.7c-0.1-0.1-0.2-0.2-0.3-0.3L368,7.4l0,0l-0.1-0.1l-0.1-0.1
		c0,0-0.2-0.1-0.3-0.2c-0.1-0.1-0.3-0.1-0.4-0.1c-0.1,0-0.3-0.1-0.4-0.1l-0.1,0l0,0l0,0l-0.1,0l-0.1,0c0,0-0.1,0-0.1,0
		c-0.1,0-0.2,0-0.2,0.1c-0.1,0-0.2,0.1-0.2,0.1L365.5,7c-0.1,0.1-0.2,0.2-0.3,0.3l-0.1,0.1L365,7.5c-0.4,0.5-0.9,1.1-1.3,1.6
		c-0.9,1.1-1.8,2.4-2.7,3.7c-0.9,1.3-1.9,2.6-3,3.9c-1.1,1.3-2.2,2.5-3.4,3.8c-1.2,1.2-2.4,2.5-3.4,3.7c-1.1,1.3-2.2,2.5-3.2,3.7
		c-0.3,0.3-0.5,0.6-0.8,0.9l-0.2,0.2l-0.1,0.1l0,0.1l0,0l-0.1,0.1l-0.1,0.1l0,0.1l-0.1,0.1c-0.1,0.2-0.2,0.4-0.2,0.5
		c0,0.2,0,0.3,0,0.5l0,0.1l0,0.1c0,0,0,0.2,0,0.1l0,0l0,0.1l0,0.1c0,0,0,0.1,0,0.1c0,0.1,0.1,0.2,0.1,0.3c0.1,0.2,0.2,0.3,0.3,0.4
		c0.1,0.1,0.3,0.2,0.4,0.3l0.2,0.2c0.2,0.1,0.3,0.2,0.5,0.3c1.2,0.8,2.4,1.5,3.5,2.2c2.2,1.3,4,2.4,5.4,3.1c0.7,0.3,1.2,0.6,1.5,0.8
		c0.4,0.2,0.6,0.3,0.6,0.3l0.1-0.1c0,0-0.2-0.1-0.5-0.4c-0.3-0.3-0.8-0.6-1.3-1.1c-1.2-0.9-2.8-2.3-4.9-3.8c-1-0.8-2.1-1.6-3.3-2.4
		c-0.1-0.1-0.3-0.2-0.5-0.3l-0.2-0.2c0,0,0,0-0.1-0.1c0,0,0,0,0,0c0,0,0,0,0,0c0,0,0,0,0,0l0-0.1l0-0.1l0,0c0,0,0,0,0-0.1
		c0,0,0,0,0,0c0,0,0,0,0,0v0l0-0.1l0.1-0.1l0.3-0.4c0.3-0.3,0.5-0.6,0.7-0.9c1-1.3,2-2.6,3-3.9c1-1.3,2-2.7,3-4.1c1-1.4,2-2.8,3.1-4
		c1.1-1.3,2.2-2.5,3.3-3.7c1.1-1.1,2.2-2.2,3.1-3.3c0.5-0.6,0.9-1.1,1.4-1.6l0.1-0.1l0,0c0,0,0,0,0.1-0.1c0,0,0,0,0,0c0,0,0,0,0,0
		l0,0c0,0,0.1,0,0.1,0l0.1,0h0l0,0c0,0,0.1,0,0.1,0c0,0,0.1,0,0.1,0c0,0,0,0,0.1,0l0.1,0.1l0,0l0,0l0.2,0.2c0.1,0.1,0.2,0.2,0.3,0.3
		c0.2,0.2,0.4,0.4,0.7,0.6c0.4,0.4,0.8,0.8,1.2,1.1c0.8,0.7,1.5,1.3,2,1.8c1.1,1,1.8,1.5,1.8,1.5l0.1-0.1c0,0-0.5-0.7-1.4-1.9
		C371.5,11.3,370.9,10.6,370.2,9.8z M348.2,30.7L348.2,30.7L348.2,30.7L348.2,30.7z"/>
	<path d="M425.9,80.4c-1.8-1.8-3.8-3.8-4.1-8.9c0.5-1.2,0.4-2.6-0.4-3.6l-14-17.7c0.2-0.6,0.2-1.2,0.2-1.8c-0.1-1.3-0.7-2.4-1.7-3.2
		l-4.2-3.5l0.7-0.8c1.9-2.3,1.7-5.6-0.3-7.7L370.6,1.7c-1.1-1.1-2.7-1.8-4.3-1.7c-1.6,0.1-3.1,0.8-4.2,2.1l-21,25.5
		c-1,1.2-1.5,2.9-1.2,4.5c0.2,1.6,1.1,3,2.5,3.9l36.9,24.7c0.9,0.6,2,1,3.2,1c1.7,0,3.3-0.8,4.4-2.1l0.7-0.8l4.2,3.5
		c0.8,0.7,1.9,1.1,3,1.1c0.8,0,1.5-0.2,2.1-0.5l18.3,9.5c0.4,0.7,1.8,3.2,1.8,5.5c0,0.9-0.8,1.5-2,2.5c-1.5,1.1-3.3,2.4-3.4,5
		c-0.1,1.6,0.3,2.9,1.3,3.9c1.8,1.9,5,2.3,7.4,2.3c2.8,0,5.1-0.8,6.5-2.2c1.1-1.1,1.7-2.6,1.7-4.3C428.4,82.9,427.2,81.6,425.9,80.4
		z M385.5,58.4c-0.8,0.9-1.9,1.5-3.1,1.5c-0.8,0-1.6-0.2-2.2-0.7l-36.9-24.7c-0.9-0.6-1.6-1.6-1.7-2.7c-0.2-1.1,0.2-2.3,0.9-3.1
		l21-25.5c0.7-0.9,1.8-1.4,2.9-1.5c0.1,0,0.1,0,0.2,0c1.1,0,2.1,0.4,2.8,1.2l31.2,31.6c1.5,1.5,1.6,3.8,0.2,5.4L391,51.8l-4.8,5.9
		l0,0L385.5,58.4z M392.8,60.8l-4.2-3.5l3.4-4.2l8.4-10.2l4.2,3.5c0.6,0.5,1,1.2,1.1,2c0.1,0.8-0.2,1.6-0.7,2.2l-8,9.7
		c-0.6,0.7-1.4,1.1-2.3,1.1C394,61.5,393.4,61.3,392.8,60.8z M398.9,60.9l7.5-9.1c0,0,0,0,0,0l0,0l13.5,17.1c0.5,0.7,0.5,1.6,0,2.3
		c-0.5,0.6-1.5,0.8-2.2,0.5l-19.3-10L398.9,60.9z M425.5,88c-1.1,1.1-3,1.7-5.3,1.7c-2.9,0-5.1-0.6-6.1-1.8
		c-0.6-0.7-0.9-1.5-0.8-2.6c0.1-1.7,1.4-2.7,2.8-3.7c1.3-1,2.7-2,2.7-3.9c0-1.5-0.5-3.1-1-4.4c0.3,0.1,0.5,0.1,0.8,0.1
		c0.6,0,1.1-0.1,1.6-0.4c0.7,4.7,2.8,6.8,4.5,8.5c1.2,1.2,2,2,2,3.3C426.7,86.2,426.3,87.2,425.5,88z"/>
	<g>
		<path class="st7" d="M385.5,58.3c-0.8,0.9-1.9,1.5-3.1,1.5c-0.8,0-1.6-0.2-2.2-0.7l-36.9-24.7c-0.9-0.6-1.6-1.6-1.7-2.7
			c-0.2-1.1,0.2-2.3,0.9-3.1l21-25.5c0.7-0.9,1.8-1.4,2.9-1.5c0.1,0,0.1,0,0.2,0c1.1,0,2.1,0.4,2.8,1.2l31.2,31.6
			c1.5,1.5,1.6,3.8,0.2,5.4L391,51.6l-4.8,5.9l0,0L385.5,58.3z"/>
	</g>
	<path class="st7" d="M425.5,88c-1.1,1.1-3,1.7-5.3,1.7c-2.9,0-5.1-0.6-6.1-1.8c-0.6-0.7-0.9-1.5-0.8-2.6c0.1-1.7,1.4-2.7,2.8-3.7
		c1.3-1,2.7-2,2.7-3.9c0-1.5-0.5-3.1-1-4.4c0.3,0.1,0.5,0.1,0.8,0.1c0.6,0,1.1-0.1,1.6-0.4c0.7,4.7,2.8,6.8,4.5,8.5
		c1.2,1.2,2,2,2,3.3C426.7,86.2,426.3,87.2,425.5,88z"/>
</g>
</svg>
