<?xml version="1.0" encoding="utf-8"?>
<!-- Generator: Adobe Illustrator 25.0.1, SVG Export Plug-In . SVG Version: 6.00 Build 0)  -->
<svg version="1.1" id="Layer_1" xmlns="http://www.w3.org/2000/svg" xmlns:xlink="http://www.w3.org/1999/xlink" x="0px" y="0px"
	 viewBox="0 0 821 610.5" style="enable-background:new 0 0 821 610.5;" xml:space="preserve">
<style type="text/css">
	.st0{font-family:'Roboto-Medium';}
	.st1{font-size:24px;}
	.st2{fill:none;stroke:#000000;stroke-miterlimit:10;}
	.st3{fill:#CCCCCC;stroke:#000000;stroke-miterlimit:10;}
	.st4{fill:#F2F2F2;stroke:#000000;stroke-miterlimit:10;}
</style>
<g>
	<text transform="matrix(1 0 0 1 19.7969 92.0135)" class="st0 st1">Left hand side page</text>
	<rect x="0.5" y="70" class="st2" width="250" height="30"/>
</g>
<g>
	<rect x="0.5" y="100" class="st2" width="380" height="450"/>
	<g>
		<rect x="60.5" y="290" class="st3" width="180" height="70"/>
		<text transform="matrix(1 0 0 1 71.4923 314.014)"><tspan x="0" y="0" class="st0 st1">Page / content</tspan><tspan x="-1.5" y="36" class="st0 st1">is not available</tspan></text>
	</g>
</g>
<g>
	<rect x="410.5" y="100" class="st2" width="20" height="450"/>
</g>
<g>
	<g>
		<rect x="0.5" y="580" class="st2" width="820" height="30"/>
	</g>
	<text transform="matrix(1 0 0 1 120.2386 602.0135)" class="st0 st1">Single View - Considered as two opposing book pages</text>
</g>
<g>
	<text transform="matrix(1 0 0 1 582.9651 92.0136)" class="st0 st1">Right hand side page</text>
	<rect x="570.5" y="70" class="st2" width="250" height="30"/>
</g>
<g>
	<rect x="460.5" y="100" transform="matrix(-1 -4.792046e-11 4.792046e-11 -1 1281 650)" class="st4" width="360" height="450"/>
	<g>
		<rect x="590.5" y="290" class="st3" width="180" height="70"/>
		<text transform="matrix(1 0 0 1 638.8338 317.6136)"><tspan x="0" y="0" class="st0 st1">Original</tspan><tspan x="-0.8" y="28.8" class="st0 st1">Content</tspan></text>
	</g>
</g>
</svg>
